<svg xmlns="http://www.w3.org/2000/svg" width="620" height="520" viewBox="0 0 620 520" fill="none">
  <rect width="620" height="520" fill="white"/>
  <path d="M172 166V248C172 266 152 276 152 294V380" stroke="#DDE6FF" stroke-width="2"/>
  <path d="M230 166V370" stroke="#2B4DFF" stroke-width="2"/>
  <path d="M288 166V260C288 282 365 295 365 330V398" stroke="#DDE6FF" stroke-width="2"/>
  <path d="M346 166V250C346 280 430 304 430 344V394" stroke="#0A165E" stroke-width="2" opacity=".55"/>
  <g filter="url(#card)">
    <rect x="90" y="94" width="380" height="86" rx="12" fill="white"/>
    <rect x="130" y="119" width="36" height="36" rx="8" fill="#EEF3FF"/>
    <path d="M149 114L170 135L149 156L128 135L149 114Z" fill="#5AB8FF"/>
    <path d="M149 126L158 135L149 144L140 135L149 126Z" fill="#2B4DFF"/>
    <text x="194" y="146" fill="#0A165E" font-family="Inter, Arial" font-size="21" font-weight="700">Finance &amp; Operations</text>
  </g>
  <g filter="url(#card)">
    <rect x="62" y="300" width="242" height="72" rx="12" fill="white"/>
    <rect x="98" y="321" width="34" height="34" rx="8" fill="#EEF3FF"/>
    <path d="M103 324H124C131 324 136 329 136 336V352H115C108 352 103 347 103 340V324Z" fill="#2B4DFF"/>
    <path d="M118 324H139C146 324 151 329 151 336V352H130C123 352 118 347 118 340V324Z" fill="#5AB8FF" opacity=".8"/>
    <text x="160" y="346" fill="#0A165E" font-family="Inter, Arial" font-size="19" font-weight="700">Supply Chain</text>
  </g>
  <g filter="url(#card)">
    <rect x="310" y="388" width="242" height="72" rx="12" fill="white"/>
    <circle cx="384" cy="424" r="60" fill="#EEF3FF"/>
    <path d="M360 424L404 392V456H360V424Z" fill="#2B4DFF"/>
    <path d="M360 424L404 392V418L360 452V424Z" fill="#0A165E"/>
    <text x="436" y="432" fill="#0A165E" font-family="Inter, Arial" font-size="19" font-weight="700">Finance</text>
  </g>
  <defs>
    <filter id="card" x="35" y="68" width="545" height="420" filterUnits="userSpaceOnUse">
      <feDropShadow dx="0" dy="16" stdDeviation="18" flood-color="#0A165E" flood-opacity=".10"/>
    </filter>
  </defs>
</svg>
